<svg version="1.1" viewBox="0.0 0.0 960.0 720.0" fill="none" stroke="none" stroke-linecap="square" stroke-miterlimit="10" xmlns:xlink="http://www.w3.org/1999/xlink" xmlns="http://www.w3.org/2000/svg"><clipPath id="p.0"><path d="m0 0l960.0 0l0 720.0l-960.0 0l0 -720.0z" clip-rule="nonzero"/></clipPath><g clip-path="url(#p.0)"><path fill="#000000" fill-opacity="0.0" d="m0 0l960.0 0l0 720.0l-960.0 0z" fill-rule="evenodd"/><path fill="#000000" fill-opacity="0.0" d="m85.39895 108.95801l376.9449 0l0 278.04724l-376.9449 0z" fill-rule="evenodd"/><path fill="#000000" d="m105.63332 149.63362l11.515625 0l12.671883 38.59375q0.96875 2.78125 1.828125 5.421875q0.859375 2.640625 1.625 5.328125l0.203125 0q0.765625 -2.6875 1.578125 -5.171875q0.8125 -2.5 1.875 -5.578125l12.375 -38.59375l11.53125 0l5.28125 60.484375l-8.84375 0l-2.484375 -32.0625q-0.390625 -4.703125 -0.59375 -9.359375q-0.1875 -4.65625 -0.375 -9.453125l-0.1875 0q-1.34375 4.703125 -2.734375 9.40625q-1.390625 4.703125 -2.9375 9.40625l-10.65625 32.0625l-8.0625 0l-10.656258 -32.15625q-1.625 -4.90625 -2.96875 -9.359375q-1.34375 -4.46875 -2.6875 -9.359375l-0.1875 0q-0.203125 4.703125 -0.546875 9.40625q-0.328125 4.703125 -0.703125 9.40625l-2.3125 32.0625l-8.640625 0l5.09375 -60.484375zm91.199715 0l7.875 0l24.09375 60.484375l-9.21875 0l-6.625 -16.796875l-24.859375 0l-6.53125 16.796875l-9.125 0l24.390625 -60.484375zm-6.34375 36.671875l19.875 0l-4.03125 -10.453125q-1.625 -4.140625 -2.96875 -7.96875q-1.34375 -3.84375 -2.6875 -7.875l-0.203125 0q-1.34375 4.03125 -2.78125 7.78125q-1.4375 3.734375 -3.0625 8.0625l-4.140625 10.453125zm46.093094 -36.671875l7.671875 0l27.54686 38.3125q1.546875 2.109375 2.984375 4.328125q1.4375 2.203125 2.59375 4.3125l0.1875 0q-0.1875 -3.359375 -0.296875 -6.71875q-0.09375 -3.359375 -0.09375 -6.71875l0 -33.515625l8.640625 0l0 60.484375l-7.671875 0l-27.26561 -37.828125q-1.4375 -2.015625 -2.984375 -4.546875q-1.53125 -2.546875 -2.875 -5.046875l-0.1875 0q0.1875 4.03125 0.28125 8.0625q0.09375 4.03125 0.09375 8.0625l0 31.296875l-8.625 0l0 -60.484375zm73.3401 0l0 60.484375l-8.828125 0l0 -60.484375l8.828125 0z" fill-rule="nonzero"/><path fill="#000000" d="m128.47708 318.6805q4.796875 0 7.921875 -0.765625q3.125 -0.765625 6.1875 -2.203125l2.015625 7.109375q-3.359375 1.625 -7.34375 2.390625q-3.984375 0.765625 -9.734383 0.765625q-5.953125 0 -11.234375 -2.015625q-5.28125 -2.015625 -9.171875 -5.953125q-3.890625 -3.9375 -6.15625 -9.734375q-2.25 -5.8125 -2.25 -13.390625q0 -7.390625 2.203125 -13.203125q2.21875 -5.8125 6.109375 -9.796875q3.890625 -3.984375 9.265625 -6.046875q5.375 -2.0625 11.703125 -2.0625q5.9531326 0 9.796883 0.96875q3.84375 0.953125 7.109375 2.578125l-2.109375 6.921875q-1.828125 -0.765625 -3.421875 -1.390625q-1.578125 -0.625 -3.171875 -1.0q-1.578125 -0.390625 -3.265625 -0.578125q-1.671875 -0.203125 -3.78125 -0.203125q-4.2187576 0 -8.015633 1.296875q-3.796875 1.296875 -6.625 4.171875q-2.828125 2.875 -4.515625 7.4375q-1.671875 4.5625 -1.671875 11.0q0 6.53125 1.625 11.046875q1.640625 4.5 4.375 7.28125q2.734375 2.78125 6.375 4.078125q3.65625 1.296875 7.7812576 1.296875zm36.10147 -54.046875l0 60.484375l-8.828125 0l0 -60.484375l8.828125 0zm33.408493 0q9.015625 0 14.046875 3.890625q5.046875 3.890625 5.046875 11.375q0 5.578125 -3.125 8.703125q-3.109375 3.109375 -7.8125 4.359375q2.6875 0.46875 4.984375 1.671875q2.3125 1.203125 4.03125 3.125q1.734375 1.921875 2.734375 4.5625q1.015625 2.640625 1.015625 5.90625q0 3.734375 -1.640625 6.859375q-1.625 3.125 -4.5 5.328125q-2.875 2.203125 -6.8125 3.453125q-3.9375 1.25 -8.640625 1.25l-17.46875 0l0 -60.484375l18.140625 0zm-9.3125 25.25l7.203125 0q2.390625 0 4.59375 -0.375q2.21875 -0.390625 3.890625 -1.4375q1.6875 -1.0625 2.6875 -2.828125q1.015625 -1.78125 1.015625 -4.671875q0 -4.609375 -3.125 -6.71875q-3.125 -2.109375 -8.296875 -2.109375l-7.96875 0l0 18.140625zm0 28.125l7.671875 0q2.6875 0 5.09375 -0.515625q2.40625 -0.53125 4.21875 -1.78125q1.828125 -1.25 2.921875 -3.3125q1.109375 -2.0625 1.109375 -5.046875q0 -2.96875 -1.296875 -4.9375q-1.296875 -1.96875 -3.40625 -3.21875q-2.109375 -1.25 -4.796875 -1.765625q-2.6875 -0.53125 -5.375 -0.53125l-6.140625 0l0 21.109375zm51.55197 -53.375l0 60.484375l-8.828125 0l0 -60.484375l8.828125 0zm10.84787 55.296875q0 -2.5 1.71875 -4.21875q1.734375 -1.734375 4.1406097 -1.734375q2.390625 0 4.0625 1.734375q1.6875 1.71875 1.6875 4.21875q0 2.78125 -1.6875 4.421875q-1.671875 1.625 -4.0625 1.625q-2.4062347 0 -4.1406097 -1.625q-1.71875 -1.640625 -1.71875 -4.421875z" fill-rule="nonzero"/></g></svg>